{"asset":{"version":"2.0","generator":"AI RPG Engine ashfell arming sword bake from Ashfell_Arming_Sword.gltf v3-full-atlas-doubleside"},"scenes":[{"nodes":[0],"name":"AshfellArmingSword"}],"scene":0,"nodes":[{"name":"AshfellArmingSword","mesh":0}],"meshes":[{"name":"AshfellArmingSword","primitives":[{"attributes":{"POSITION":0,"COLOR_0":1,"TEXCOORD_0":2},"indices":3,"material":0,"mode":4}]}],"materials":[{"name":"AshfellArmingSwordAtlas","alphaMode":"OPAQUE","pbrMetallicRoughness":{"baseColorTexture":{"index":0},"metallicFactor":0.0,"roughnessFactor":1.0}}],"textures":[{"name":"AshfellArmingSwordAtlas","source":0,"sampler":0}],"images":[{"name":"AshfellArmingSwordAtlas","uri":"ashfell_arming_sword.png"}],"samplers":[{"magFilter":9728,"minFilter":9728,"wrapS":33071,"wrapT":33071}],"accessors":[{"bufferView":0,"componentType":5126,"count":556,"type":"VEC3","min":[-0.14968677139674283,0.0,-0.06944809468212283],"max":[0.14968677139674283,1.05,0.06944809468212283]},{"bufferView":1,"componentType":5126,"count":556,"type":"VEC4"},{"bufferView":2,"componentType":5126,"count":556,"type":"VEC2"},{"bufferView":3,"componentType":5123,"count":1608,"type":"SCALAR"}],"bufferViews":[{"buffer":0,"byteOffset":0,"byteLength":6672,"target":34962},{"buffer":0,"byteOffset":6672,"byteLength":8896,"target":34962},{"buffer":0,"byteOffset":15568,"byteLength":4448,"target":34962},{"buffer":0,"byteOffset":20016,"byteLength":3216,"target":34963}],"buffers":[{"byteLength":23232,"uri":"data:application/octet-stream;base64,"}]}