{"asset":{"version":"2.0","generator":"AI RPG Engine barrel bake from Barrel.gltf v1"},"scenes":[{"nodes":[0],"name":"Barrel"}],"scene":0,"nodes":[{"name":"Barrel","mesh":0}],"meshes":[{"name":"Barrel","primitives":[{"attributes":{"POSITION":0,"COLOR_0":1,"TEXCOORD_0":2},"indices":3,"material":0,"mode":4}]}],"materials":[{"name":"BarrelAtlas","pbrMetallicRoughness":{"baseColorTexture":{"index":0},"metallicFactor":0.0,"roughnessFactor":1.0}}],"textures":[{"name":"BarrelAtlas","source":0,"sampler":0}],"images":[{"name":"BarrelAtlas","uri":"barrel.png"}],"samplers":[{"magFilter":9728,"minFilter":9728,"wrapS":33071,"wrapT":33071}],"accessors":[{"bufferView":0,"componentType":5126,"count":792,"type":"VEC3","min":[-0.49868943148267647,0.0,-0.49868943148267647],"max":[0.49868943148267647,1.0,0.49868943148267647]},{"bufferView":1,"componentType":5126,"count":792,"type":"VEC4"},{"bufferView":2,"componentType":5126,"count":792,"type":"VEC2"},{"bufferView":3,"componentType":5123,"count":1152,"type":"SCALAR"}],"bufferViews":[{"buffer":0,"byteOffset":0,"byteLength":9504,"target":34962},{"buffer":0,"byteOffset":9504,"byteLength":12672,"target":34962},{"buffer":0,"byteOffset":22176,"byteLength":6336,"target":34962},{"buffer":0,"byteOffset":28512,"byteLength":2304,"target":34963}],"buffers":[{"byteLength":30816,"uri":"data:application/octet-stream;base64,"}]}