{"asset":{"version":"2.0","generator":"AI RPG Engine bush bake from Bush.gltf v1"},"scenes":[{"nodes":[0],"name":"Bush"}],"scene":0,"nodes":[{"name":"Bush","mesh":0}],"meshes":[{"name":"Bush","primitives":[{"attributes":{"POSITION":0,"COLOR_0":1,"TEXCOORD_0":2},"indices":3,"material":0,"mode":4}]}],"materials":[{"name":"BushAtlas","pbrMetallicRoughness":{"baseColorTexture":{"index":0},"metallicFactor":0.0,"roughnessFactor":1.0}}],"textures":[{"name":"BushAtlas","source":0,"sampler":0}],"images":[{"name":"BushAtlas","uri":"bush.png"}],"samplers":[{"magFilter":9728,"minFilter":9728,"wrapS":33071,"wrapT":33071}],"accessors":[{"bufferView":0,"componentType":5126,"count":4352,"type":"VEC3","min":[-0.6525735132989187,0.0,-0.670955863533137],"max":[0.6525735132989187,1.25,0.670955863533137]},{"bufferView":1,"componentType":5126,"count":4352,"type":"VEC4"},{"bufferView":2,"componentType":5126,"count":4352,"type":"VEC2"},{"bufferView":3,"componentType":5123,"count":5952,"type":"SCALAR"}],"bufferViews":[{"buffer":0,"byteOffset":0,"byteLength":52224,"target":34962},{"buffer":0,"byteOffset":52224,"byteLength":69632,"target":34962},{"buffer":0,"byteOffset":121856,"byteLength":34816,"target":34962},{"buffer":0,"byteOffset":156672,"byteLength":11904,"target":34963}],"buffers":[{"byteLength":168576,"uri":"data:application/octet-stream;base64,"}]}