{"asset":{"version":"2.0","generator":"AI RPG Engine tall bush bake from Tall_Bush.gltf v2-uv-snap"},"scenes":[{"nodes":[0],"name":"TallBush"}],"scene":0,"nodes":[{"name":"TallBush","mesh":0}],"meshes":[{"name":"TallBush","primitives":[{"attributes":{"POSITION":0,"COLOR_0":1,"TEXCOORD_0":2},"indices":3,"material":0,"mode":4}]}],"materials":[{"name":"TallBushAtlas","pbrMetallicRoughness":{"baseColorTexture":{"index":0},"metallicFactor":0.0,"roughnessFactor":1.0}}],"textures":[{"name":"TallBushAtlas","source":0,"sampler":0}],"images":[{"name":"TallBushAtlas","uri":"bush_tall.png"}],"samplers":[{"magFilter":9728,"minFilter":9728,"wrapS":33071,"wrapT":33071}],"accessors":[{"bufferView":0,"componentType":5126,"count":8576,"type":"VEC3","min":[-0.6408369576295565,0.0,-0.6578873778842745],"max":[0.6408369576295565,1.9000000000000001,0.6578873778842745]},{"bufferView":1,"componentType":5126,"count":8576,"type":"VEC4"},{"bufferView":2,"componentType":5126,"count":8576,"type":"VEC2"},{"bufferView":3,"componentType":5123,"count":11712,"type":"SCALAR"}],"bufferViews":[{"buffer":0,"byteOffset":0,"byteLength":102912,"target":34962},{"buffer":0,"byteOffset":102912,"byteLength":137216,"target":34962},{"buffer":0,"byteOffset":240128,"byteLength":68608,"target":34962},{"buffer":0,"byteOffset":308736,"byteLength":23424,"target":34963}],"buffers":[{"byteLength":332160,"uri":"data:application/octet-stream;base64,"}]}