{"asset":{"version":"2.0","generator":"AI RPG Engine campfire bake from Campfire_New.gltf v3-uv-snap"},"scenes":[{"nodes":[0],"name":"Campfire"}],"scene":0,"nodes":[{"name":"Campfire","mesh":0}],"meshes":[{"name":"Campfire","primitives":[{"attributes":{"POSITION":0,"COLOR_0":1,"TEXCOORD_0":2},"indices":3,"material":0,"mode":4}]}],"materials":[{"name":"CampfireAtlas","pbrMetallicRoughness":{"baseColorTexture":{"index":0},"metallicFactor":0.0,"roughnessFactor":1.0}}],"textures":[{"name":"CampfireAtlas","source":0,"sampler":0}],"images":[{"name":"CampfireAtlas","uri":"campfire.png"}],"samplers":[{"magFilter":9728,"minFilter":9728,"wrapS":33071,"wrapT":33071}],"accessors":[{"bufferView":0,"componentType":5126,"count":2616,"type":"VEC3","min":[-0.628878106391263,0.0,-0.65],"max":[0.628878106391263,0.43737543061985,0.65]},{"bufferView":1,"componentType":5126,"count":2616,"type":"VEC4"},{"bufferView":2,"componentType":5126,"count":2616,"type":"VEC2"},{"bufferView":3,"componentType":5123,"count":3600,"type":"SCALAR"}],"bufferViews":[{"buffer":0,"byteOffset":0,"byteLength":31392,"target":34962},{"buffer":0,"byteOffset":31392,"byteLength":41856,"target":34962},{"buffer":0,"byteOffset":73248,"byteLength":20928,"target":34962},{"buffer":0,"byteOffset":94176,"byteLength":7200,"target":34963}],"buffers":[{"byteLength":101376,"uri":"data:application/octet-stream;base64,"}]}