{"asset":{"version":"2.0","generator":"AI RPG Engine corner_tower_stub bake from Corner_Tower_Stub.bbmodel v1-appearance-courtyard"},"scenes":[{"nodes":[0],"name":"CornerTowerStub"}],"scene":0,"nodes":[{"name":"CornerTowerStub","mesh":0}],"meshes":[{"name":"CornerTowerStub","primitives":[{"attributes":{"POSITION":0,"COLOR_0":1,"TEXCOORD_0":2},"indices":3,"material":0,"mode":4}]}],"materials":[{"name":"CornerTowerStubAtlas","pbrMetallicRoughness":{"baseColorTexture":{"index":0},"metallicFactor":0.0,"roughnessFactor":1.0}}],"textures":[{"name":"CornerTowerStubAtlas","source":0,"sampler":0}],"images":[{"name":"CornerTowerStubAtlas","uri":"corner_tower_stub.png"}],"samplers":[{"magFilter":9728,"minFilter":9728,"wrapS":33071,"wrapT":33071}],"accessors":[{"bufferView":0,"componentType":5126,"count":1236,"type":"VEC3","min":[-1.539473684210526,0.0,-2.131578947368421],"max":[1.539473684210526,5.4,2.131578947368421]},{"bufferView":1,"componentType":5126,"count":1236,"type":"VEC4"},{"bufferView":2,"componentType":5126,"count":1236,"type":"VEC2"},{"bufferView":3,"componentType":5123,"count":1236,"type":"SCALAR"}],"bufferViews":[{"buffer":0,"byteOffset":0,"byteLength":14832,"target":34962},{"buffer":0,"byteOffset":14832,"byteLength":19776,"target":34962},{"buffer":0,"byteOffset":34608,"byteLength":9888,"target":34962},{"buffer":0,"byteOffset":44496,"byteLength":2472,"target":34963}],"buffers":[{"byteLength":46968,"uri":"data:application/octet-stream;base64,"}]}