{"asset":{"version":"2.0","generator":"AI RPG Engine crate bake from Crate.gltf v2-uv-snap"},"scenes":[{"nodes":[0],"name":"Crate"}],"scene":0,"nodes":[{"name":"Crate","mesh":0}],"meshes":[{"name":"Crate","primitives":[{"attributes":{"POSITION":0,"COLOR_0":1,"TEXCOORD_0":2},"indices":3,"material":0,"mode":4}]}],"materials":[{"name":"CrateAtlas","pbrMetallicRoughness":{"baseColorTexture":{"index":0},"metallicFactor":0.0,"roughnessFactor":1.0}}],"textures":[{"name":"CrateAtlas","source":0,"sampler":0}],"images":[{"name":"CrateAtlas","uri":"crate.png"}],"samplers":[{"magFilter":9728,"minFilter":9728,"wrapS":33071,"wrapT":33071}],"accessors":[{"bufferView":0,"componentType":5126,"count":1224,"type":"VEC3","min":[-0.4999999999999996,0.0,-0.5079928279506339],"max":[0.4999999999999996,1.0,0.5079928279506339]},{"bufferView":1,"componentType":5126,"count":1224,"type":"VEC4"},{"bufferView":2,"componentType":5126,"count":1224,"type":"VEC2"},{"bufferView":3,"componentType":5123,"count":1764,"type":"SCALAR"}],"bufferViews":[{"buffer":0,"byteOffset":0,"byteLength":14688,"target":34962},{"buffer":0,"byteOffset":14688,"byteLength":19584,"target":34962},{"buffer":0,"byteOffset":34272,"byteLength":9792,"target":34962},{"buffer":0,"byteOffset":44064,"byteLength":3528,"target":34963}],"buffers":[{"byteLength":47592,"uri":"data:application/octet-stream;base64,"}]}