{
  "asset": { "version": "2.0", "generator": "AI RPG Engine project-owned sample" },
  "buffers": [{
    "byteLength": 96,
    "uri": "data:application/octet-stream;base64,"
  }],
  "bufferViews": [
    { "buffer": 0, "byteOffset": 0, "byteLength": 60, "target": 34962 },
    { "buffer": 0, "byteOffset": 60, "byteLength": 36, "target": 34963 }
  ],
  "accessors": [
    { "bufferView": 0, "componentType": 5126, "count": 5, "type": "VEC3", "min": [-0.5, 0.0, -0.5], "max": [0.5, 2.0, 0.5] },
    { "bufferView": 1, "componentType": 5123, "count": 18, "type": "SCALAR" }
  ],
  "meshes": [{ "name": "LowPolyTree", "primitives": [{ "attributes": { "POSITION": 0 }, "indices": 1 }] }],
  "nodes": [{ "mesh": 0 }],
  "scenes": [{ "nodes": [0] }],
  "scene": 0
}
