{"asset":{"version":"2.0","generator":"AI RPG Engine dead_log bake from DeadLog.gltf v1"},"scenes":[{"nodes":[0],"name":"DeadLog"}],"scene":0,"nodes":[{"name":"DeadLog","mesh":0}],"meshes":[{"name":"DeadLog","primitives":[{"attributes":{"POSITION":0,"COLOR_0":1,"TEXCOORD_0":2},"indices":3,"material":0,"mode":4}]}],"materials":[{"name":"DeadLogAtlas","pbrMetallicRoughness":{"baseColorTexture":{"index":0},"metallicFactor":0.0,"roughnessFactor":1.0}}],"textures":[{"name":"DeadLogAtlas","source":0,"sampler":0}],"images":[{"name":"DeadLogAtlas","uri":"dead_log.png"}],"samplers":[{"magFilter":9728,"minFilter":9728,"wrapS":33071,"wrapT":33071}],"accessors":[{"bufferView":0,"componentType":5126,"count":400,"type":"VEC3","min":[-0.2262392628508228,0.0,-0.5977578757857811],"max":[0.2262392628508228,0.45,0.5977578757857811]},{"bufferView":1,"componentType":5126,"count":400,"type":"VEC4"},{"bufferView":2,"componentType":5126,"count":400,"type":"VEC2"},{"bufferView":3,"componentType":5123,"count":576,"type":"SCALAR"}],"bufferViews":[{"buffer":0,"byteOffset":0,"byteLength":4800,"target":34962},{"buffer":0,"byteOffset":4800,"byteLength":6400,"target":34962},{"buffer":0,"byteOffset":11200,"byteLength":3200,"target":34962},{"buffer":0,"byteOffset":14400,"byteLength":1152,"target":34963}],"buffers":[{"byteLength":15552,"uri":"data:application/octet-stream;base64,"}]}