{"asset":{"version":"2.0","generator":"AI RPG Engine guild rune focus bake from Guild_Rune_Focus.gltf v2-0.55m"},"scenes":[{"nodes":[0],"name":"GuildRuneFocus"}],"scene":0,"nodes":[{"name":"GuildRuneFocus","mesh":0}],"meshes":[{"name":"GuildRuneFocus","primitives":[{"attributes":{"POSITION":0,"COLOR_0":1,"TEXCOORD_0":2},"indices":3,"material":0,"mode":4}]}],"materials":[{"name":"GuildRuneFocusAtlas","alphaMode":"OPAQUE","pbrMetallicRoughness":{"baseColorTexture":{"index":0},"metallicFactor":0.0,"roughnessFactor":1.0}}],"textures":[{"name":"GuildRuneFocusAtlas","source":0,"sampler":0}],"images":[{"name":"GuildRuneFocusAtlas","uri":"guild_rune_focus.png"}],"samplers":[{"magFilter":9728,"minFilter":9728,"wrapS":33071,"wrapT":33071}],"accessors":[{"bufferView":0,"componentType":5126,"count":1088,"type":"VEC3","min":[-0.04737073555604135,0.0,-0.04737073555604135],"max":[0.04737073555604135,0.55,0.04737073555604135]},{"bufferView":1,"componentType":5126,"count":1088,"type":"VEC4"},{"bufferView":2,"componentType":5126,"count":1088,"type":"VEC2"},{"bufferView":3,"componentType":5123,"count":1440,"type":"SCALAR"}],"bufferViews":[{"buffer":0,"byteOffset":0,"byteLength":13056,"target":34962},{"buffer":0,"byteOffset":13056,"byteLength":17408,"target":34962},{"buffer":0,"byteOffset":30464,"byteLength":8704,"target":34962},{"buffer":0,"byteOffset":39168,"byteLength":2880,"target":34963}],"buffers":[{"byteLength":42048,"uri":"data:application/octet-stream;base64,"}]}