{"asset":{"version":"2.0","generator":"AI RPG Engine lantern bake from Lantern.gltf v2-backdrop-clean"},"scenes":[{"nodes":[0],"name":"Lantern"}],"scene":0,"nodes":[{"name":"Lantern","mesh":0}],"meshes":[{"name":"Lantern","primitives":[{"attributes":{"POSITION":0,"COLOR_0":1,"TEXCOORD_0":2},"indices":3,"material":0,"mode":4}]}],"materials":[{"name":"LanternAtlas","pbrMetallicRoughness":{"baseColorTexture":{"index":0},"metallicFactor":0.0,"roughnessFactor":1.0}}],"textures":[{"name":"LanternAtlas","source":0,"sampler":0}],"images":[{"name":"LanternAtlas","uri":"lantern.png"}],"samplers":[{"magFilter":9728,"minFilter":9728,"wrapS":33071,"wrapT":33071}],"accessors":[{"bufferView":0,"componentType":5126,"count":3080,"type":"VEC3","min":[-0.1817721695680763,0.0,-0.18011695348565415],"max":[0.1817721695680763,0.5500000000000002,0.18011695348565415]},{"bufferView":1,"componentType":5126,"count":3080,"type":"VEC4"},{"bufferView":2,"componentType":5126,"count":3080,"type":"VEC2"},{"bufferView":3,"componentType":5123,"count":4500,"type":"SCALAR"}],"bufferViews":[{"buffer":0,"byteOffset":0,"byteLength":36960,"target":34962},{"buffer":0,"byteOffset":36960,"byteLength":49280,"target":34962},{"buffer":0,"byteOffset":86240,"byteLength":24640,"target":34962},{"buffer":0,"byteOffset":110880,"byteLength":9000,"target":34963}],"buffers":[{"byteLength":119880,"uri":"data:application/octet-stream;base64,"}]}