{"asset":{"version":"2.0","generator":"AI RPG Engine loot bag bake from Loot_Bag.gltf v2"},"scenes":[{"nodes":[0],"name":"LootBag"}],"scene":0,"nodes":[{"name":"LootBag","mesh":0}],"meshes":[{"name":"LootBag","primitives":[{"attributes":{"POSITION":0,"COLOR_0":1,"TEXCOORD_0":2},"indices":3,"material":0,"mode":4}]}],"materials":[{"name":"LootBagAtlas","alphaMode":"OPAQUE","pbrMetallicRoughness":{"baseColorTexture":{"index":0},"metallicFactor":0.0,"roughnessFactor":1.0}}],"textures":[{"name":"LootBagAtlas","source":0,"sampler":0}],"images":[{"name":"LootBagAtlas","uri":"loot_bag.png"}],"samplers":[{"magFilter":9728,"minFilter":9728,"wrapS":33071,"wrapT":33071}],"accessors":[{"bufferView":0,"componentType":5126,"count":464,"type":"VEC3","min":[-0.2133620658364756,0.0,-0.20796612836360823],"max":[0.2133620658364756,0.45,0.20796612836360823]},{"bufferView":1,"componentType":5126,"count":464,"type":"VEC4"},{"bufferView":2,"componentType":5126,"count":464,"type":"VEC2"},{"bufferView":3,"componentType":5123,"count":672,"type":"SCALAR"}],"bufferViews":[{"buffer":0,"byteOffset":0,"byteLength":5568,"target":34962},{"buffer":0,"byteOffset":5568,"byteLength":7424,"target":34962},{"buffer":0,"byteOffset":12992,"byteLength":3712,"target":34962},{"buffer":0,"byteOffset":16704,"byteLength":1344,"target":34963}],"buffers":[{"byteLength":18048,"uri":"data:application/octet-stream;base64,"}]}