{"asset":{"version":"2.0","generator":"AI RPG Engine tree bake from oak_asymmetric.bbmodel"},"scenes":[{"nodes":[0],"name":"OakAsymmetric"}],"scene":0,"nodes":[{"name":"OakAsymmetric","mesh":0}],"meshes":[{"name":"OakAsymmetric","primitives":[{"attributes":{"POSITION":0,"COLOR_0":1,"TEXCOORD_0":2},"indices":3,"material":0,"mode":4}]}],"materials":[{"name":"TreeAtlas","pbrMetallicRoughness":{"baseColorTexture":{"index":0},"metallicFactor":0.0,"roughnessFactor":1.0}}],"textures":[{"name":"TreeAtlas","source":0,"sampler":0}],"images":[{"name":"TreeAtlas","uri":"tree.png"}],"samplers":[{"magFilter":9728,"minFilter":9728,"wrapS":33071,"wrapT":33071}],"accessors":[{"bufferView":0,"componentType":5126,"count":3744,"type":"VEC3","min":[-0.7930800751237835,0.0,-1.2478444596209664],"max":[0.7930800751237835,2.95,1.2478444596209664]},{"bufferView":1,"componentType":5126,"count":3744,"type":"VEC4"},{"bufferView":2,"componentType":5126,"count":3744,"type":"VEC2"},{"bufferView":3,"componentType":5123,"count":3744,"type":"SCALAR"}],"bufferViews":[{"buffer":0,"byteOffset":0,"byteLength":44928,"target":34962},{"buffer":0,"byteOffset":44928,"byteLength":59904,"target":34962},{"buffer":0,"byteOffset":104832,"byteLength":29952,"target":34962},{"buffer":0,"byteOffset":134784,"byteLength":7488,"target":34963}],"buffers":[{"byteLength":142272,"uri":"data:application/octet-stream;base64,"}]}