{"asset":{"version":"2.0","generator":"AI RPG Engine tree bake from oak_young.bbmodel"},"scenes":[{"nodes":[0],"name":"OakYoung"}],"scene":0,"nodes":[{"name":"OakYoung","mesh":0}],"meshes":[{"name":"OakYoung","primitives":[{"attributes":{"POSITION":0,"COLOR_0":1,"TEXCOORD_0":2},"indices":3,"material":0,"mode":4}]}],"materials":[{"name":"TreeAtlas","pbrMetallicRoughness":{"baseColorTexture":{"index":0},"metallicFactor":0.0,"roughnessFactor":1.0}}],"textures":[{"name":"TreeAtlas","source":0,"sampler":0}],"images":[{"name":"TreeAtlas","uri":"tree.png"}],"samplers":[{"magFilter":9728,"minFilter":9728,"wrapS":33071,"wrapT":33071}],"accessors":[{"bufferView":0,"componentType":5126,"count":4464,"type":"VEC3","min":[-0.5696129773917487,0.0,-0.8377506705837272],"max":[0.5696129773917487,2.25,0.8377506705837272]},{"bufferView":1,"componentType":5126,"count":4464,"type":"VEC4"},{"bufferView":2,"componentType":5126,"count":4464,"type":"VEC2"},{"bufferView":3,"componentType":5123,"count":4464,"type":"SCALAR"}],"bufferViews":[{"buffer":0,"byteOffset":0,"byteLength":53568,"target":34962},{"buffer":0,"byteOffset":53568,"byteLength":71424,"target":34962},{"buffer":0,"byteOffset":124992,"byteLength":35712,"target":34962},{"buffer":0,"byteOffset":160704,"byteLength":8928,"target":34963}],"buffers":[{"byteLength":169632,"uri":"data:application/octet-stream;base64,"}]}