{"asset":{"version":"2.0","generator":"AI RPG Engine outrider shortbow bake from Outrider_Shortbow.gltf v5-string-doubleside-optin"},"scenes":[{"nodes":[0],"name":"OutriderShortbow"}],"scene":0,"nodes":[{"name":"OutriderShortbow","mesh":0}],"meshes":[{"name":"OutriderShortbow","primitives":[{"attributes":{"POSITION":0,"COLOR_0":1,"TEXCOORD_0":2},"indices":3,"material":0,"mode":4}]}],"materials":[{"name":"OutriderShortbowAtlas","alphaMode":"OPAQUE","pbrMetallicRoughness":{"baseColorTexture":{"index":0},"metallicFactor":0.0,"roughnessFactor":1.0}}],"textures":[{"name":"OutriderShortbowAtlas","source":0,"sampler":0}],"images":[{"name":"OutriderShortbowAtlas","uri":"outrider_shortbow.png"}],"samplers":[{"magFilter":9728,"minFilter":9728,"wrapS":33071,"wrapT":33071}],"accessors":[{"bufferView":0,"componentType":5126,"count":3440,"type":"VEC3","min":[-0.04591836772287458,0.0,-0.11162233225724477],"max":[0.04591836772287458,1.05,0.11162233225724477]},{"bufferView":1,"componentType":5126,"count":3440,"type":"VEC4"},{"bufferView":2,"componentType":5126,"count":3440,"type":"VEC2"},{"bufferView":3,"componentType":5123,"count":2520,"type":"SCALAR"}],"bufferViews":[{"buffer":0,"byteOffset":0,"byteLength":41280,"target":34962},{"buffer":0,"byteOffset":41280,"byteLength":55040,"target":34962},{"buffer":0,"byteOffset":96320,"byteLength":27520,"target":34962},{"buffer":0,"byteOffset":123840,"byteLength":5040,"target":34963}],"buffers":[{"byteLength":128880,"uri":"data:application/octet-stream;base64,"}]}