{"asset":{"version":"2.0","generator":"AI RPG Engine outrider arrow bake from Outrider_Arrow.gltf v2-max-extent"},"scenes":[{"nodes":[0],"name":"OutriderArrow"}],"scene":0,"nodes":[{"name":"OutriderArrow","mesh":0}],"meshes":[{"name":"OutriderArrow","primitives":[{"attributes":{"POSITION":0,"COLOR_0":1,"TEXCOORD_0":2},"indices":3,"material":0,"mode":4}]}],"materials":[{"name":"OutriderArrowAtlas","alphaMode":"OPAQUE","pbrMetallicRoughness":{"baseColorTexture":{"index":0},"metallicFactor":0.0,"roughnessFactor":1.0}}],"textures":[{"name":"OutriderArrowAtlas","source":0,"sampler":0}],"images":[{"name":"OutriderArrowAtlas","uri":"outrider_arrow.png"}],"samplers":[{"magFilter":9728,"minFilter":9728,"wrapS":33071,"wrapT":33071}],"accessors":[{"bufferView":0,"componentType":5126,"count":702,"type":"VEC3","min":[-0.022154456325914444,0.0,-0.375],"max":[0.022154456325914444,0.03837264504394125,0.375]},{"bufferView":1,"componentType":5126,"count":702,"type":"VEC4"},{"bufferView":2,"componentType":5126,"count":702,"type":"VEC2"},{"bufferView":3,"componentType":5123,"count":1014,"type":"SCALAR"}],"bufferViews":[{"buffer":0,"byteOffset":0,"byteLength":8424,"target":34962},{"buffer":0,"byteOffset":8424,"byteLength":11232,"target":34962},{"buffer":0,"byteOffset":19656,"byteLength":5616,"target":34962},{"buffer":0,"byteOffset":25272,"byteLength":2028,"target":34963}],"buffers":[{"byteLength":27300,"uri":"data:application/octet-stream;base64,"}]}