{"asset":{"version":"2.0","generator":"AI RPG Engine bake_player_v2_gltf.py"},"scenes":[{"nodes":[37],"name":"blockbench_export"}],"scene":0,"nodes":[{"translation":[0.0,0.04916986044294573,-0.042145594665382057],"name":"Head"},{"translation":[0.0,0.37228608621087483,0.007024265777563677],"name":"Neck","children":[0]},{"translation":[0.04916986044294573,-0.0035121328887818383,0.024584930221472866],"name":"LeftThumb2"},{"translation":[0.028097063110254707,-0.010536398666345514,0.06673052488685492],"name":"LeftThumb1","children":[2]},{"translation":[0.0632183919980731,0.0,0.0],"name":"LeftIndex2"},{"translation":[0.11238825244101883,0.0,0.03863346177660022],"name":"LeftIndex1","children":[4]},{"translation":[0.06673052488685492,0.0,0.0],"name":"LeftMiddle2"},{"translation":[0.1194125182185825,0.0,0.010536398666345514],"name":"LeftMiddle1","children":[6]},{"translation":[0.0632183919980731,0.0,0.0],"name":"LeftRing2"},{"translation":[0.10887611955223699,0.0,-0.01756066444390919],"name":"LeftRing1","children":[8]},{"translation":[0.05619412622050941,0.0,0.0],"name":"LeftPinky2"},{"translation":[0.09833972088589146,0.0,-0.042145594665382057],"name":"LeftPinky1","children":[10]},{"translation":[0.3863346177660022,0.0,0.014048531555127353],"name":"LeftHand","children":[3,5,7,9,11]},{"translation":[0.6673052488685493,0.0,0.03512132888781838],"name":"LeftLowerArm","children":[12]},{"translation":[0.3512132888781838,0.1756066444390919,0.0],"name":"LeftUpperArm","children":[13]},{"translation":[-0.04916986044294573,-0.0035121328887818383,0.024584930221472866],"name":"RightThumb2"},{"translation":[-0.028097063110254707,-0.010536398666345514,0.06673052488685492],"name":"RightThumb1","children":[15]},{"translation":[-0.0632183919980731,0.0,0.0],"name":"RightIndex2"},{"translation":[-0.11238825244101883,0.0,0.03863346177660022],"name":"RightIndex1","children":[17]},{"translation":[-0.06673052488685492,0.0,0.0],"name":"RightMiddle2"},{"translation":[-0.1194125182185825,0.0,0.010536398666345514],"name":"RightMiddle1","children":[19]},{"translation":[-0.0632183919980731,0.0,0.0],"name":"RightRing2"},{"translation":[-0.10887611955223699,0.0,-0.01756066444390919],"name":"RightRing1","children":[21]},{"translation":[-0.05619412622050941,0.0,0.0],"name":"RightPinky2"},{"translation":[-0.09833972088589146,0.0,-0.042145594665382057],"name":"RightPinky1","children":[23]},{"translation":[-0.3863346177660022,0.0,0.014048531555127353],"name":"RightHand","children":[16,18,20,22,24]},{"translation":[-0.6673052488685493,0.0,0.03512132888781838],"name":"RightLowerArm","children":[25]},{"translation":[-0.3512132888781838,0.1756066444390919,0.0],"name":"RightUpperArm","children":[26]},{"translation":[0.0,0.49169860442945734,0.0],"name":"Chest","children":[1,14,27]},{"translation":[0.0,0.28097063110254705,0.0],"name":"Spine","children":[28]},{"translation":[0.0,-0.45657727554163896,0.0],"name":"LeftFoot"},{"translation":[0.0,-0.45657727554163896,0.0],"name":"LeftLowerLeg","children":[30]},{"translation":[0.1545338471064009,-0.03512132888781838,0.0],"name":"LeftUpperLeg","children":[31]},{"translation":[0.0,-0.45657727554163896,0.0],"name":"RightFoot"},{"translation":[0.0,-0.45657727554163896,0.0],"name":"RightLowerLeg","children":[33]},{"translation":[-0.1545338471064009,-0.03512132888781838,0.0],"name":"RightUpperLeg","children":[34]},{"translation":[0.0,0.9904214763111938,0.00835607655297347],"name":"Hips","children":[29,32,35]},{"name":"PlayerArmature","mesh":0,"children":[36],"skin":0}],"bufferViews":[{"buffer":0,"byteOffset":0,"byteLength":41496,"target":34962,"byteStride":12},{"buffer":0,"byteOffset":41496,"byteLength":41496,"target":34962,"byteStride":12},{"buffer":0,"byteOffset":82992,"byteLength":27664,"target":34962,"byteStride":8},{"buffer":0,"byteOffset":110656,"byteLength":27664,"target":34962,"byteStride":8},{"buffer":0,"byteOffset":138320,"byteLength":55328,"target":34962,"byteStride":16},{"buffer":0,"byteOffset":193648,"byteLength":10260,"target":34963},{"buffer":0,"byteOffset":203908,"byteLength":2368},{"buffer":0,"byteOffset":206276,"byteLength":12},{"buffer":0,"byteOffset":206288,"byteLength":36},{"buffer":0,"byteOffset":206324,"byteLength":12},{"buffer":0,"byteOffset":206336,"byteLength":36},{"buffer":0,"byteOffset":206372,"byteLength":4},{"buffer":0,"byteOffset":206376,"byteLength":12},{"buffer":0,"byteOffset":206388,"byteLength":4},{"buffer":0,"byteOffset":206392,"byteLength":16},{"buffer":0,"byteOffset":206408,"byteLength":4},{"buffer":0,"byteOffset":206412,"byteLength":16},{"buffer":0,"byteOffset":206428,"byteLength":4},{"buffer":0,"byteOffset":206432,"byteLength":12},{"buffer":0,"byteOffset":206444,"byteLength":4},{"buffer":0,"byteOffset":206448,"byteLength":16},{"buffer":0,"byteOffset":206464,"byteLength":4},{"buffer":0,"byteOffset":206468,"byteLength":16},{"buffer":0,"byteOffset":206484,"byteLength":4},{"buffer":0,"byteOffset":206488,"byteLength":16},{"buffer":0,"byteOffset":206504,"byteLength":12},{"buffer":0,"byteOffset":206516,"byteLength":48},{"buffer":0,"byteOffset":206564,"byteLength":12},{"buffer":0,"byteOffset":206576,"byteLength":48},{"buffer":0,"byteOffset":206624,"byteLength":12},{"buffer":0,"byteOffset":206636,"byteLength":48},{"buffer":0,"byteOffset":206684,"byteLength":12},{"buffer":0,"byteOffset":206696,"byteLength":48},{"buffer":0,"byteOffset":206744,"byteLength":12},{"buffer":0,"byteOffset":206756,"byteLength":48},{"buffer":0,"byteOffset":206804,"byteLength":12},{"buffer":0,"byteOffset":206816,"byteLength":48},{"buffer":0,"byteOffset":206864,"byteLength":12},{"buffer":0,"byteOffset":206876,"byteLength":48},{"buffer":0,"byteOffset":206924,"byteLength":12},{"buffer":0,"byteOffset":206936,"byteLength":48},{"buffer":0,"byteOffset":206984,"byteLength":12},{"buffer":0,"byteOffset":206996,"byteLength":48},{"buffer":0,"byteOffset":207044,"byteLength":12},{"buffer":0,"byteOffset":207056,"byteLength":48},{"buffer":0,"byteOffset":207104,"byteLength":12},{"buffer":0,"byteOffset":207116,"byteLength":48},{"buffer":0,"byteOffset":207164,"byteLength":12},{"buffer":0,"byteOffset":207176,"byteLength":48},{"buffer":0,"byteOffset":207224,"byteLength":12},{"buffer":0,"byteOffset":207236,"byteLength":48},{"buffer":0,"byteOffset":207284,"byteLength":12},{"buffer":0,"byteOffset":207296,"byteLength":48},{"buffer":0,"byteOffset":207344,"byteLength":12},{"buffer":0,"byteOffset":207356,"byteLength":48},{"buffer":0,"byteOffset":207404,"byteLength":12},{"buffer":0,"byteOffset":207416,"byteLength":48},{"buffer":0,"byteOffset":207464,"byteLength":12},{"buffer":0,"byteOffset":207476,"byteLength":48},{"buffer":0,"byteOffset":207524,"byteLength":12},{"buffer":0,"byteOffset":207536,"byteLength":48},{"buffer":0,"byteOffset":207584,"byteLength":12},{"buffer":0,"byteOffset":207596,"byteLength":48},{"buffer":0,"byteOffset":207644,"byteLength":12},{"buffer":0,"byteOffset":207656,"byteLength":48},{"buffer":0,"byteOffset":207704,"byteLength":55328}],"buffers":[{"byteLength":263032,"uri":"data:application/octet-stream;base64,"}],"accessors":[{"bufferView":0,"componentType":5126,"count":3458,"max":[1.5874840925248384,2.75,0.3533936176904177],"min":[-1.5874840925248384,0.0,-0.3533936176904177],"type":"VEC3"},{"bufferView":1,"componentType":5126,"count":3458,"max":[1,1,1],"min":[-1,-1,-1],"type":"VEC3"},{"bufferView":2,"componentType":5126,"count":3458,"max":[0.9933398365974426,0.97265625],"min":[0,0],"type":"VEC2"},{"bufferView":3,"componentType":5123,"count":3458,"max":[36,36,0,0],"min":[1,0,0,0],"type":"VEC4"},{"bufferView":4,"componentType":5126,"count":3458,"max":[1,0.4376400113105774,0,0],"min":[0.5623599886894226,0,0,0],"type":"VEC4"},{"bufferView":5,"componentType":5123,"count":5130,"max":[3457],"min":[0],"type":"SCALAR"},{"bufferView":6,"componentType":5126,"count":37,"max":[1,0,0,0,0,1,0,0,0,0,1,0,1.415624976158142,-0.15625,0,1],"min":[1,0,0,0,0,1,0,0,0,0,1,0,-1.415624976158142,-2.0625,-0.15625,1],"type":"MAT4"},{"bufferView":7,"componentType":5126,"count":3,"max":[1],"min":[0],"type":"SCALAR"},{"bufferView":8,"componentType":5126,"count":3,"max":[0.0,0.5197956742385739,0.0],"min":[0.0,0.49169860442945734,0.0],"type":"VEC3"},{"bufferView":9,"componentType":5126,"count":3,"max":[1],"min":[0],"type":"SCALAR"},{"bufferView":10,"componentType":5126,"count":3,"max":[0.0,0.056194127057867145,-0.04214559634009753],"min":[0.0,0.049169859605588,-0.04214559634009753],"type":"VEC3"},{"bufferView":11,"componentType":5126,"count":1,"max":[0],"min":[0],"type":"SCALAR"},{"bufferView":12,"componentType":5126,"count":1,"max":[0.31609195999036543,0.15453385045583182,0.0],"min":[0.31609195999036543,0.15453385045583182,0.0],"type":"VEC3"},{"bufferView":13,"componentType":5126,"count":1,"max":[0],"min":[0],"type":"SCALAR"},{"bufferView":14,"componentType":5126,"count":1,"max":[-0.07195013016462326,0.03535452112555504,-0.5851812958717346,0.8069300651550293],"min":[-0.07195013016462326,0.03535452112555504,-0.5851812958717346,0.8069300651550293],"type":"VEC4"},{"bufferView":15,"componentType":5126,"count":1,"max":[0],"min":[0],"type":"SCALAR"},{"bufferView":16,"componentType":5126,"count":1,"max":[0.07975377142429352,0.023180577903985977,-0.0432254895567894,0.9956071376800537],"min":[0.07975377142429352,0.023180577903985977,-0.0432254895567894,0.9956071376800537],"type":"VEC4"},{"bufferView":17,"componentType":5126,"count":1,"max":[0],"min":[0],"type":"SCALAR"},{"bufferView":18,"componentType":5126,"count":1,"max":[-0.3512132888781838,0.2037037142482085,0.0],"min":[-0.3512132888781838,0.2037037142482085,0.0],"type":"VEC3"},{"bufferView":19,"componentType":5126,"count":1,"max":[0],"min":[0],"type":"SCALAR"},{"bufferView":20,"componentType":5126,"count":1,"max":[-0.041426677256822586,-0.003106486052274704,0.5517589449882507,0.8329683542251587],"min":[-0.041426677256822586,-0.003106486052274704,0.5517589449882507,0.8329683542251587],"type":"VEC4"},{"bufferView":21,"componentType":5126,"count":1,"max":[0],"min":[0],"type":"SCALAR"},{"bufferView":22,"componentType":5126,"count":1,"max":[0.019558237865567207,0.00781645905226469,0.08002236485481262,0.9965705275535583],"min":[0.019558237865567207,0.00781645905226469,0.08002236485481262,0.9965705275535583],"type":"VEC4"},{"bufferView":23,"componentType":5126,"count":1,"max":[0],"min":[0],"type":"SCALAR"},{"bufferView":24,"componentType":5126,"count":1,"max":[0.0004314776451792568,-0.0008323214715346694,-0.017444178462028503,0.999847412109375],"min":[0.0004314776451792568,-0.0008323214715346694,-0.017444178462028503,0.999847412109375],"type":"VEC4"},{"bufferView":25,"componentType":5126,"count":3,"max":[1],"min":[0],"type":"SCALAR"},{"bufferView":26,"componentType":5126,"count":3,"max":[0,0,0.4617486000061035,1],"min":[0,0,0,0.8870108127593994],"type":"VEC4"},{"bufferView":27,"componentType":5126,"count":3,"max":[1],"min":[0],"type":"SCALAR"},{"bufferView":28,"componentType":5126,"count":3,"max":[0,0,0.5243574976921082,1],"min":[0,0,0,0.8514982461929321],"type":"VEC4"},{"bufferView":29,"componentType":5126,"count":3,"max":[1],"min":[0],"type":"SCALAR"},{"bufferView":30,"componentType":5126,"count":3,"max":[0,0,0.48290035128593445,1],"min":[0,0,0,0.8756753206253052],"type":"VEC4"},{"bufferView":31,"componentType":5126,"count":3,"max":[1],"min":[0],"type":"SCALAR"},{"bufferView":32,"componentType":5126,"count":3,"max":[0,0,0.5476545095443726,1],"min":[0,0,0,0.8367045521736145],"type":"VEC4"},{"bufferView":33,"componentType":5126,"count":3,"max":[1],"min":[0],"type":"SCALAR"},{"bufferView":34,"componentType":5126,"count":3,"max":[0,0,0.44033095240592957,1],"min":[0,0,0,0.8978355526924133],"type":"VEC4"},{"bufferView":35,"componentType":5126,"count":3,"max":[1],"min":[0],"type":"SCALAR"},{"bufferView":36,"componentType":5126,"count":3,"max":[0,0,0.5006611347198486,1],"min":[0,0,0,0.8656433820724487],"type":"VEC4"},{"bufferView":37,"componentType":5126,"count":3,"max":[1],"min":[0],"type":"SCALAR"},{"bufferView":38,"componentType":5126,"count":3,"max":[0,0,0.4186597466468811,1],"min":[0,0,0,0.908143162727356],"type":"VEC4"},{"bufferView":39,"componentType":5126,"count":3,"max":[1],"min":[0],"type":"SCALAR"},{"bufferView":40,"componentType":5126,"count":3,"max":[0,0,0.47658348083496094,1],"min":[0,0,0,0.8791292309761047],"type":"VEC4"},{"bufferView":41,"componentType":5126,"count":3,"max":[1],"min":[0],"type":"SCALAR"},{"bufferView":42,"componentType":5126,"count":3,"max":[0.24297575652599335,0,0.18606208264827728,1],"min":[0,-0.26412278413772583,0,0.9146490097045898],"type":"VEC4"},{"bufferView":43,"componentType":5126,"count":3,"max":[1],"min":[0],"type":"SCALAR"},{"bufferView":44,"componentType":5126,"count":3,"max":[0.08189960569143295,0.029809020459651947,0.34071865677833557,1],"min":[0,0,0,0.9361168146133423],"type":"VEC4"},{"bufferView":45,"componentType":5126,"count":3,"max":[1],"min":[0],"type":"SCALAR"},{"bufferView":46,"componentType":5126,"count":3,"max":[0,0,0,1],"min":[0,0,-0.4617486000061035,0.8870108127593994],"type":"VEC4"},{"bufferView":47,"componentType":5126,"count":3,"max":[1],"min":[0],"type":"SCALAR"},{"bufferView":48,"componentType":5126,"count":3,"max":[0,0,0,1],"min":[0,0,-0.5243574976921082,0.8514982461929321],"type":"VEC4"},{"bufferView":49,"componentType":5126,"count":3,"max":[1],"min":[0],"type":"SCALAR"},{"bufferView":50,"componentType":5126,"count":3,"max":[0,0,0,1],"min":[0,0,-0.48290035128593445,0.8756753206253052],"type":"VEC4"},{"bufferView":51,"componentType":5126,"count":3,"max":[1],"min":[0],"type":"SCALAR"},{"bufferView":52,"componentType":5126,"count":3,"max":[0,0,0,1],"min":[0,0,-0.5476545095443726,0.8367045521736145],"type":"VEC4"},{"bufferView":53,"componentType":5126,"count":3,"max":[1],"min":[0],"type":"SCALAR"},{"bufferView":54,"componentType":5126,"count":3,"max":[0,0,0,1],"min":[0,0,-0.44033095240592957,0.8978355526924133],"type":"VEC4"},{"bufferView":55,"componentType":5126,"count":3,"max":[1],"min":[0],"type":"SCALAR"},{"bufferView":56,"componentType":5126,"count":3,"max":[0,0,0,1],"min":[0,0,-0.5006611347198486,0.8656433820724487],"type":"VEC4"},{"bufferView":57,"componentType":5126,"count":3,"max":[1],"min":[0],"type":"SCALAR"},{"bufferView":58,"componentType":5126,"count":3,"max":[0,0,0,1],"min":[0,0,-0.4186597466468811,0.908143162727356],"type":"VEC4"},{"bufferView":59,"componentType":5126,"count":3,"max":[1],"min":[0],"type":"SCALAR"},{"bufferView":60,"componentType":5126,"count":3,"max":[0,0,0,1],"min":[0,0,-0.47658348083496094,0.8791292309761047],"type":"VEC4"},{"bufferView":61,"componentType":5126,"count":3,"max":[1],"min":[0],"type":"SCALAR"},{"bufferView":62,"componentType":5126,"count":3,"max":[0.24297575652599335,0.26412278413772583,0,1],"min":[0,0,-0.18606208264827728,0.9146490097045898],"type":"VEC4"},{"bufferView":63,"componentType":5126,"count":3,"max":[1],"min":[0],"type":"SCALAR"},{"bufferView":64,"componentType":5126,"count":3,"max":[0.08189960569143295,0,0,1],"min":[0,-0.029809020459651947,-0.34071865677833557,0.9361168146133423],"type":"VEC4"},{"bufferView":65,"componentType":5126,"count":3458,"type":"VEC4"}],"materials":[{"pbrMetallicRoughness":{"metallicFactor":0,"roughnessFactor":1,"baseColorTexture":{"index":0}},"alphaMode":"OPAQUE","doubleSided":true}],"textures":[{"source":0,"sampler":0}],"samplers":[{"magFilter":9728,"minFilter":9728,"wrapS":33071,"wrapT":33071}],"images":[{"uri":"player.png"}],"meshes":[{"primitives":[{"mode":4,"attributes":{"POSITION":0,"NORMAL":1,"TEXCOORD_0":2,"JOINTS_0":3,"WEIGHTS_0":4,"COLOR_0":65},"indices":5,"material":0}]}],"skins":[{"inverseBindMatrices":6,"joints":[36,29,28,1,0,14,13,12,3,2,5,4,7,6,9,8,11,10,27,26,25,16,15,18,17,20,19,22,21,24,23,32,31,30,35,34,33],"skeleton":36}],"animations":[{"name":"Idle","samplers":[{"input":7,"output":8,"interpolation":"LINEAR"},{"input":9,"output":10,"interpolation":"LINEAR"},{"input":11,"output":12,"interpolation":"LINEAR"},{"input":13,"output":14,"interpolation":"LINEAR"},{"input":15,"output":16,"interpolation":"LINEAR"},{"input":17,"output":18,"interpolation":"LINEAR"},{"input":19,"output":20,"interpolation":"LINEAR"},{"input":21,"output":22,"interpolation":"LINEAR"},{"input":23,"output":24,"interpolation":"LINEAR"}],"channels":[{"sampler":0,"target":{"node":28,"path":"translation"}},{"sampler":1,"target":{"node":0,"path":"translation"}},{"sampler":2,"target":{"node":14,"path":"translation"}},{"sampler":3,"target":{"node":14,"path":"rotation"}},{"sampler":4,"target":{"node":13,"path":"rotation"}},{"sampler":5,"target":{"node":27,"path":"translation"}},{"sampler":6,"target":{"node":27,"path":"rotation"}},{"sampler":7,"target":{"node":26,"path":"rotation"}},{"sampler":8,"target":{"node":25,"path":"rotation"}}]},{"name":"HandGrip","samplers":[{"input":25,"output":26,"interpolation":"LINEAR"},{"input":27,"output":28,"interpolation":"LINEAR"},{"input":29,"output":30,"interpolation":"LINEAR"},{"input":31,"output":32,"interpolation":"LINEAR"},{"input":33,"output":34,"interpolation":"LINEAR"},{"input":35,"output":36,"interpolation":"LINEAR"},{"input":37,"output":38,"interpolation":"LINEAR"},{"input":39,"output":40,"interpolation":"LINEAR"},{"input":41,"output":42,"interpolation":"LINEAR"},{"input":43,"output":44,"interpolation":"LINEAR"},{"input":45,"output":46,"interpolation":"LINEAR"},{"input":47,"output":48,"interpolation":"LINEAR"},{"input":49,"output":50,"interpolation":"LINEAR"},{"input":51,"output":52,"interpolation":"LINEAR"},{"input":53,"output":54,"interpolation":"LINEAR"},{"input":55,"output":56,"interpolation":"LINEAR"},{"input":57,"output":58,"interpolation":"LINEAR"},{"input":59,"output":60,"interpolation":"LINEAR"},{"input":61,"output":62,"interpolation":"LINEAR"},{"input":63,"output":64,"interpolation":"LINEAR"}],"channels":[{"sampler":0,"target":{"node":5,"path":"rotation"}},{"sampler":1,"target":{"node":4,"path":"rotation"}},{"sampler":2,"target":{"node":7,"path":"rotation"}},{"sampler":3,"target":{"node":6,"path":"rotation"}},{"sampler":4,"target":{"node":9,"path":"rotation"}},{"sampler":5,"target":{"node":8,"path":"rotation"}},{"sampler":6,"target":{"node":11,"path":"rotation"}},{"sampler":7,"target":{"node":10,"path":"rotation"}},{"sampler":8,"target":{"node":3,"path":"rotation"}},{"sampler":9,"target":{"node":2,"path":"rotation"}},{"sampler":10,"target":{"node":18,"path":"rotation"}},{"sampler":11,"target":{"node":17,"path":"rotation"}},{"sampler":12,"target":{"node":20,"path":"rotation"}},{"sampler":13,"target":{"node":19,"path":"rotation"}},{"sampler":14,"target":{"node":22,"path":"rotation"}},{"sampler":15,"target":{"node":21,"path":"rotation"}},{"sampler":16,"target":{"node":24,"path":"rotation"}},{"sampler":17,"target":{"node":23,"path":"rotation"}},{"sampler":18,"target":{"node":16,"path":"rotation"}},{"sampler":19,"target":{"node":15,"path":"rotation"}}]}]}