{
"asset":{"version":"2.0","generator":"AI RPG Engine sample locomotion clips"},
"nodes":[{"name":"Hip"}],
"animations":[
{"name":"Idle","samplers":[{"input":0,"output":1,"interpolation":"LINEAR"}],"channels":[{"sampler":0,"target":{"node":0,"path":"translation"}}]},
{"name":"Walk","samplers":[{"input":0,"output":1,"interpolation":"LINEAR"}],"channels":[{"sampler":0,"target":{"node":0,"path":"translation"}}]},
{"name":"Attack","samplers":[{"input":0,"output":1,"interpolation":"LINEAR"}],"channels":[{"sampler":0,"target":{"node":0,"path":"translation"}}]}
],
"accessors":[
{"bufferView":0,"componentType":5126,"count":2,"type":"SCALAR","max":[1.0],"min":[0.0]},
{"bufferView":1,"componentType":5126,"count":2,"type":"VEC3"}
],
"bufferViews":[{"buffer":0,"byteOffset":0,"byteLength":8},{"buffer":0,"byteOffset":8,"byteLength":24}],
"buffers":[{"byteLength":32,"uri":"data:application/octet-stream;base64,"}]
}
