{"asset":{"version":"2.0","generator":"AI RPG Engine player bake from Blockbench Player.gltf v1"},"scenes":[{"nodes":[0],"name":"Player"}],"scene":0,"nodes":[{"name":"Player","mesh":0}],"meshes":[{"name":"Player","primitives":[{"attributes":{"POSITION":0,"COLOR_0":1,"TEXCOORD_0":2},"indices":3,"material":0,"mode":4}]}],"materials":[{"name":"PlayerAtlas","pbrMetallicRoughness":{"baseColorTexture":{"index":0},"metallicFactor":0.0,"roughnessFactor":1.0}}],"textures":[{"name":"PlayerAtlas","source":0,"sampler":0}],"images":[{"name":"PlayerAtlas","uri":"player.png"}],"samplers":[{"magFilter":9728,"minFilter":9728,"wrapS":33071,"wrapT":33071}],"accessors":[{"bufferView":0,"componentType":5126,"count":648,"type":"VEC3","min":[-0.4961275830577124,0.0,-0.24601367498669094],"max":[0.4961275830577124,1.8,0.24601367498669094]},{"bufferView":1,"componentType":5126,"count":648,"type":"VEC4"},{"bufferView":2,"componentType":5126,"count":648,"type":"VEC2"},{"bufferView":3,"componentType":5123,"count":972,"type":"SCALAR"}],"bufferViews":[{"buffer":0,"byteOffset":0,"byteLength":7776,"target":34962},{"buffer":0,"byteOffset":7776,"byteLength":10368,"target":34962},{"buffer":0,"byteOffset":18144,"byteLength":5184,"target":34962},{"buffer":0,"byteOffset":23328,"byteLength":1944,"target":34963}],"buffers":[{"byteLength":25272,"uri":"data:application/octet-stream;base64,"}]}