{"asset":{"version":"2.0","generator":"AI RPG Engine stones bake from Stones.gltf v1"},"scenes":[{"nodes":[0],"name":"Stones"}],"scene":0,"nodes":[{"name":"Stones","mesh":0}],"meshes":[{"name":"Stones","primitives":[{"attributes":{"POSITION":0,"COLOR_0":1,"TEXCOORD_0":2},"indices":3,"material":0,"mode":4}]}],"materials":[{"name":"StonesAtlas","pbrMetallicRoughness":{"baseColorTexture":{"index":0},"metallicFactor":0.0,"roughnessFactor":1.0}}],"textures":[{"name":"StonesAtlas","source":0,"sampler":0}],"images":[{"name":"StonesAtlas","uri":"stones.png"}],"samplers":[{"magFilter":9728,"minFilter":9728,"wrapS":33071,"wrapT":33071}],"accessors":[{"bufferView":0,"componentType":5126,"count":321,"type":"VEC3","min":[-0.7294867031958632,0.0,-0.8020734191150605],"max":[0.7294867031958632,0.45000000000000007,0.8020734191150605]},{"bufferView":1,"componentType":5126,"count":321,"type":"VEC4"},{"bufferView":2,"componentType":5126,"count":321,"type":"VEC2"},{"bufferView":3,"componentType":5123,"count":477,"type":"SCALAR"}],"bufferViews":[{"buffer":0,"byteOffset":0,"byteLength":3852,"target":34962},{"buffer":0,"byteOffset":3852,"byteLength":5136,"target":34962},{"buffer":0,"byteOffset":8988,"byteLength":2568,"target":34962},{"buffer":0,"byteOffset":11556,"byteLength":956,"target":34963}],"buffers":[{"byteLength":12512,"uri":"data:application/octet-stream;base64,"}]}