{"asset":{"version":"2.0","generator":"AI RPG Engine stump bake from Stump.gltf v1"},"scenes":[{"nodes":[0],"name":"Stump"}],"scene":0,"nodes":[{"name":"Stump","mesh":0}],"meshes":[{"name":"Stump","primitives":[{"attributes":{"POSITION":0,"COLOR_0":1,"TEXCOORD_0":2},"indices":3,"material":0,"mode":4}]}],"materials":[{"name":"StumpAtlas","pbrMetallicRoughness":{"baseColorTexture":{"index":0},"metallicFactor":0.0,"roughnessFactor":1.0}}],"textures":[{"name":"StumpAtlas","source":0,"sampler":0}],"images":[{"name":"StumpAtlas","uri":"stump.png"}],"samplers":[{"magFilter":9728,"minFilter":9728,"wrapS":33071,"wrapT":33071}],"accessors":[{"bufferView":0,"componentType":5126,"count":208,"type":"VEC3","min":[-0.42500003386627844,0.0,-0.42500003386627844],"max":[0.42500003386627844,0.55,0.42500003386627844]},{"bufferView":1,"componentType":5126,"count":208,"type":"VEC4"},{"bufferView":2,"componentType":5126,"count":208,"type":"VEC2"},{"bufferView":3,"componentType":5123,"count":288,"type":"SCALAR"}],"bufferViews":[{"buffer":0,"byteOffset":0,"byteLength":2496,"target":34962},{"buffer":0,"byteOffset":2496,"byteLength":3328,"target":34962},{"buffer":0,"byteOffset":5824,"byteLength":1664,"target":34962},{"buffer":0,"byteOffset":7488,"byteLength":576,"target":34963}],"buffers":[{"byteLength":8064,"uri":"data:application/octet-stream;base64,"}]}