{
  "asset": {
    "version": "2.0",
    "generator": "AI RPG Engine target_dummy skinned bake from Target_Dummy.bbmodel v2-hitreact"
  },
  "scenes": [
    {
      "nodes": [
        0,
        4
      ],
      "name": "TargetDummy"
    }
  ],
  "scene": 0,
  "nodes": [
    {
      "name": "DummyRoot",
      "translation": [
        0.0,
        -0.28838951310861427,
        0.0
      ],
      "rotation": [
        0.0,
        0.0,
        0.0,
        1.0
      ],
      "children": [
        1,
        2
      ]
    },
    {
      "name": "Base_Bone",
      "translation": [
        0.0,
        0.0,
        0.0
      ],
      "rotation": [
        0.0,
        0.0,
        0.0,
        1.0
      ]
    },
    {
      "name": "UpperBody_Bone",
      "translation": [
        0.0,
        0.6426966292134833,
        0.0
      ],
      "rotation": [
        0.0,
        0.0,
        0.0,
        1.0
      ],
      "children": [
        3
      ]
    },
    {
      "name": "Head_Bone",
      "translation": [
        0.0,
        1.4790262172284645,
        0.0
      ],
      "rotation": [
        0.0,
        0.0,
        0.0,
        1.0
      ]
    },
    {
      "name": "TargetDummy",
      "mesh": 0,
      "skin": 0
    }
  ],
  "meshes": [
    {
      "name": "TargetDummy",
      "primitives": [
        {
          "attributes": {
            "POSITION": 0,
            "COLOR_0": 1,
            "TEXCOORD_0": 2,
            "JOINTS_0": 3,
            "WEIGHTS_0": 4
          },
          "indices": 5,
          "material": 0,
          "mode": 4
        }
      ]
    }
  ],
  "skins": [
    {
      "name": "TargetDummySkin",
      "joints": [
        0,
        1,
        2,
        3
      ],
      "inverseBindMatrices": 6
    }
  ],
  "animations": [
    {
      "name": "Idle",
      "samplers": [
        {
          "input": 7,
          "interpolation": "LINEAR",
          "output": 8
        }
      ],
      "channels": [
        {
          "sampler": 0,
          "target": {
            "node": 2,
            "path": "rotation"
          }
        }
      ]
    },
    {
      "name": "HitReact",
      "samplers": [
        {
          "input": 9,
          "interpolation": "LINEAR",
          "output": 10
        }
      ],
      "channels": [
        {
          "sampler": 0,
          "target": {
            "node": 2,
            "path": "rotation"
          }
        }
      ]
    }
  ],
  "materials": [
    {
      "name": "TargetDummyAtlas",
      "pbrMetallicRoughness": {
        "baseColorTexture": {
          "index": 0
        },
        "metallicFactor": 0.0,
        "roughnessFactor": 1.0
      }
    }
  ],
  "textures": [
    {
      "name": "TargetDummyAtlas",
      "source": 0,
      "sampler": 0
    }
  ],
  "images": [
    {
      "name": "TargetDummyAtlas",
      "uri": "target_dummy.png"
    }
  ],
  "samplers": [
    {
      "magFilter": 9728,
      "minFilter": 9728,
      "wrapS": 33071,
      "wrapT": 33071
    }
  ],
  "accessors": [
    {
      "bufferView": 0,
      "componentType": 5126,
      "count": 1068,
      "type": "VEC3",
      "min": [
        -1.0327211985018727,
        0.0,
        -0.49438202247191015
      ],
      "max": [
        1.0327211985018727,
        2.2,
        0.49438202247191015
      ]
    },
    {
      "bufferView": 1,
      "componentType": 5126,
      "count": 1068,
      "type": "VEC4"
    },
    {
      "bufferView": 2,
      "componentType": 5126,
      "count": 1068,
      "type": "VEC2"
    },
    {
      "bufferView": 3,
      "componentType": 5121,
      "count": 1068,
      "type": "VEC4"
    },
    {
      "bufferView": 4,
      "componentType": 5126,
      "count": 1068,
      "type": "VEC4"
    },
    {
      "bufferView": 5,
      "componentType": 5123,
      "count": 1068,
      "type": "SCALAR"
    },
    {
      "bufferView": 6,
      "componentType": 5126,
      "count": 4,
      "type": "MAT4"
    },
    {
      "bufferView": 7,
      "componentType": 5126,
      "count": 2,
      "type": "SCALAR",
      "min": [
        0.0
      ],
      "max": [
        0.05
      ]
    },
    {
      "bufferView": 8,
      "componentType": 5126,
      "count": 2,
      "type": "VEC4"
    },
    {
      "bufferView": 9,
      "componentType": 5126,
      "count": 4,
      "type": "SCALAR",
      "min": [
        0.0
      ],
      "max": [
        1.0
      ]
    },
    {
      "bufferView": 10,
      "componentType": 5126,
      "count": 4,
      "type": "VEC4"
    }
  ],
  "bufferViews": [
    {
      "buffer": 0,
      "byteOffset": 0,
      "byteLength": 12816,
      "target": 34962
    },
    {
      "buffer": 0,
      "byteOffset": 12816,
      "byteLength": 17088,
      "target": 34962
    },
    {
      "buffer": 0,
      "byteOffset": 29904,
      "byteLength": 8544,
      "target": 34962
    },
    {
      "buffer": 0,
      "byteOffset": 38448,
      "byteLength": 4272,
      "target": 34962
    },
    {
      "buffer": 0,
      "byteOffset": 42720,
      "byteLength": 17088,
      "target": 34962
    },
    {
      "buffer": 0,
      "byteOffset": 59808,
      "byteLength": 2136,
      "target": 34963
    },
    {
      "buffer": 0,
      "byteOffset": 61944,
      "byteLength": 256
    },
    {
      "buffer": 0,
      "byteOffset": 62200,
      "byteLength": 8
    },
    {
      "buffer": 0,
      "byteOffset": 62208,
      "byteLength": 32
    },
    {
      "buffer": 0,
      "byteOffset": 62240,
      "byteLength": 16
    },
    {
      "buffer": 0,
      "byteOffset": 62256,
      "byteLength": 64
    }
  ],
  "buffers": [
    {
      "byteLength": 62320,
      "uri": "data:application/octet-stream;base64,"
    }
  ]
}