{"asset":{"version":"2.0","generator":"AI RPG Engine tessera_banner_pole bake from Tessera_Banner_Pole.bbmodel v1-appearance-courtyard"},"scenes":[{"nodes":[0],"name":"TesseraBannerPole"}],"scene":0,"nodes":[{"name":"TesseraBannerPole","mesh":0}],"meshes":[{"name":"TesseraBannerPole","primitives":[{"attributes":{"POSITION":0,"COLOR_0":1,"TEXCOORD_0":2},"indices":3,"material":0,"mode":4}]}],"materials":[{"name":"TesseraBannerPoleAtlas","pbrMetallicRoughness":{"baseColorTexture":{"index":0},"metallicFactor":0.0,"roughnessFactor":1.0}}],"textures":[{"name":"TesseraBannerPoleAtlas","source":0,"sampler":0}],"images":[{"name":"TesseraBannerPoleAtlas","uri":"tessera_banner_pole.png"}],"samplers":[{"magFilter":9728,"minFilter":9728,"wrapS":33071,"wrapT":33071}],"accessors":[{"bufferView":0,"componentType":5126,"count":840,"type":"VEC3","min":[-0.8400381566820275,0.0,-0.31336405529953915],"max":[0.8400381566820275,3.3999999999999995,0.31336405529953915]},{"bufferView":1,"componentType":5126,"count":840,"type":"VEC4"},{"bufferView":2,"componentType":5126,"count":840,"type":"VEC2"},{"bufferView":3,"componentType":5123,"count":1680,"type":"SCALAR"}],"bufferViews":[{"buffer":0,"byteOffset":0,"byteLength":10080,"target":34962},{"buffer":0,"byteOffset":10080,"byteLength":13440,"target":34962},{"buffer":0,"byteOffset":23520,"byteLength":6720,"target":34962},{"buffer":0,"byteOffset":30240,"byteLength":3360,"target":34963}],"buffers":[{"byteLength":33600,"uri":"data:application/octet-stream;base64,"}]}