{"asset":{"version":"2.0","generator":"AI RPG Engine wall torch bake from Wall_Torch.gltf v2-uv-snap"},"scenes":[{"nodes":[0],"name":"WallTorch"}],"scene":0,"nodes":[{"name":"WallTorch","mesh":0}],"meshes":[{"name":"WallTorch","primitives":[{"attributes":{"POSITION":0,"COLOR_0":1,"TEXCOORD_0":2},"indices":3,"material":0,"mode":4}]}],"materials":[{"name":"WallTorchAtlas","pbrMetallicRoughness":{"baseColorTexture":{"index":0},"metallicFactor":0.0,"roughnessFactor":1.0}}],"textures":[{"name":"WallTorchAtlas","source":0,"sampler":0}],"images":[{"name":"WallTorchAtlas","uri":"wall_torch.png"}],"samplers":[{"magFilter":9728,"minFilter":9728,"wrapS":33071,"wrapT":33071}],"accessors":[{"bufferView":0,"componentType":5126,"count":336,"type":"VEC3","min":[-0.10581394843374353,0.0,-0.20348836801716486],"max":[0.10581394843374353,0.7,0.20348836801716486]},{"bufferView":1,"componentType":5126,"count":336,"type":"VEC4"},{"bufferView":2,"componentType":5126,"count":336,"type":"VEC2"},{"bufferView":3,"componentType":5123,"count":468,"type":"SCALAR"}],"bufferViews":[{"buffer":0,"byteOffset":0,"byteLength":4032,"target":34962},{"buffer":0,"byteOffset":4032,"byteLength":5376,"target":34962},{"buffer":0,"byteOffset":9408,"byteLength":2688,"target":34962},{"buffer":0,"byteOffset":12096,"byteLength":936,"target":34963}],"buffers":[{"byteLength":13032,"uri":"data:application/octet-stream;base64,"}]}