{"asset":{"version":"2.0","generator":"AI RPG Engine weapon_rack bake from Weapon_Rack.bbmodel v1-appearance-courtyard"},"scenes":[{"nodes":[0],"name":"WeaponRack"}],"scene":0,"nodes":[{"name":"WeaponRack","mesh":0}],"meshes":[{"name":"WeaponRack","primitives":[{"attributes":{"POSITION":0,"COLOR_0":1,"TEXCOORD_0":2},"indices":3,"material":0,"mode":4}]}],"materials":[{"name":"WeaponRackAtlas","pbrMetallicRoughness":{"baseColorTexture":{"index":0},"metallicFactor":0.0,"roughnessFactor":1.0}}],"textures":[{"name":"WeaponRackAtlas","source":0,"sampler":0}],"images":[{"name":"WeaponRackAtlas","uri":"weapon_rack.png"}],"samplers":[{"magFilter":9728,"minFilter":9728,"wrapS":33071,"wrapT":33071}],"accessors":[{"bufferView":0,"componentType":5126,"count":1656,"type":"VEC3","min":[-1.3710144927536232,0.0,-0.5920289855072464],"max":[1.3710144927536232,2.15,0.5920289855072464]},{"bufferView":1,"componentType":5126,"count":1656,"type":"VEC4"},{"bufferView":2,"componentType":5126,"count":1656,"type":"VEC2"},{"bufferView":3,"componentType":5123,"count":3312,"type":"SCALAR"}],"bufferViews":[{"buffer":0,"byteOffset":0,"byteLength":19872,"target":34962},{"buffer":0,"byteOffset":19872,"byteLength":26496,"target":34962},{"buffer":0,"byteOffset":46368,"byteLength":13248,"target":34962},{"buffer":0,"byteOffset":59616,"byteLength":6624,"target":34963}],"buffers":[{"byteLength":66240,"uri":"data:application/octet-stream;base64,"}]}