{"asset":{"version":"2.0","generator":"AI RPG Engine workbench_table bake from Workbench_Table.bbmodel v1-appearance-courtyard"},"scenes":[{"nodes":[0],"name":"WorkbenchTable"}],"scene":0,"nodes":[{"name":"WorkbenchTable","mesh":0}],"meshes":[{"name":"WorkbenchTable","primitives":[{"attributes":{"POSITION":0,"COLOR_0":1,"TEXCOORD_0":2},"indices":3,"material":0,"mode":4}]}],"materials":[{"name":"WorkbenchTableAtlas","pbrMetallicRoughness":{"baseColorTexture":{"index":0},"metallicFactor":0.0,"roughnessFactor":1.0}}],"textures":[{"name":"WorkbenchTableAtlas","source":0,"sampler":0}],"images":[{"name":"WorkbenchTableAtlas","uri":"workbench_table.png"}],"samplers":[{"magFilter":9728,"minFilter":9728,"wrapS":33071,"wrapT":33071}],"accessors":[{"bufferView":0,"componentType":5126,"count":576,"type":"VEC3","min":[-1.2276923076923079,0.0,-0.9046153846153847],"max":[1.2276923076923079,1.05,0.9046153846153847]},{"bufferView":1,"componentType":5126,"count":576,"type":"VEC4"},{"bufferView":2,"componentType":5126,"count":576,"type":"VEC2"},{"bufferView":3,"componentType":5123,"count":576,"type":"SCALAR"}],"bufferViews":[{"buffer":0,"byteOffset":0,"byteLength":6912,"target":34962},{"buffer":0,"byteOffset":6912,"byteLength":9216,"target":34962},{"buffer":0,"byteOffset":16128,"byteLength":4608,"target":34962},{"buffer":0,"byteOffset":20736,"byteLength":1152,"target":34963}],"buffers":[{"byteLength":21888,"uri":"data:application/octet-stream;base64,"}]}