{"asset":{"version":"2.0","generator":"Blockbench 5.1.4 glTF exporter"},"scenes":[{"nodes":[0],"name":"blockbench_export"}],"scene":0,"nodes":[{"rotation":[-0.6915130557822694,0,0,0.7223639620597556],"translation":[0,0.0625,0.25],"name":"cylinder","mesh":0}],"bufferViews":[{"buffer":0,"byteOffset":0,"byteLength":4800,"target":34962,"byteStride":12},{"buffer":0,"byteOffset":4800,"byteLength":4800,"target":34962,"byteStride":12},{"buffer":0,"byteOffset":9600,"byteLength":3200,"target":34962,"byteStride":8},{"buffer":0,"byteOffset":12800,"byteLength":1152,"target":34963}],"buffers":[{"byteLength":13952,"uri":"data:application/octet-stream;base64,"}],"accessors":[{"bufferView":0,"componentType":5126,"count":400,"max":[0.13124999403953552,0.5625,0.14188329875469208],"min":[-0.10713835060596466,-0.0625,-0.083847776055336],"type":"VEC3"},{"bufferView":1,"componentType":5126,"count":400,"max":[1,1,1],"min":[-1,-1,-1],"type":"VEC3"},{"bufferView":2,"componentType":5126,"count":400,"max":[0.57421875,0.65625],"min":[0.0008343749796040356,0],"type":"VEC2"},{"bufferView":3,"componentType":5123,"count":576,"max":[399],"min":[0],"type":"SCALAR"}],"materials":[{"pbrMetallicRoughness":{"metallicFactor":0,"roughnessFactor":1,"baseColorTexture":{"index":0}},"alphaMode":"MASK","alphaCutoff":0.05,"doubleSided":true}],"textures":[{"sampler":0,"source":0,"name":"texture"}],"samplers":[{"magFilter":9728,"minFilter":9728,"wrapS":33071,"wrapT":33071}],"images":[{"mimeType":"image/png","uri":"data:image/png;base64,"}],"meshes":[{"primitives":[{"mode":4,"attributes":{"POSITION":0,"NORMAL":1,"TEXCOORD_0":2},"indices":3,"material":0}]}]}