{"asset":{"version":"2.0","generator":"Blockbench 5.1.4 glTF exporter"},"scenes":[{"nodes":[0,1,2],"name":"blockbench_export"}],"scene":0,"nodes":[{"translation":[0,0.5,0],"name":"sphere","mesh":0},{"rotation":[0,-0.5187732581605214,0,0.8549118706729466],"translation":[0,0.375,-0.625],"name":"sphere","mesh":1},{"rotation":[0,-0.5187732581605214,0,0.8549118706729466],"translation":[0.4375,0.4374999999999999,-0.4375],"name":"sphere","mesh":2}],"bufferViews":[{"buffer":0,"byteOffset":0,"byteLength":1284,"target":34962,"byteStride":12},{"buffer":0,"byteOffset":1284,"byteLength":1284,"target":34962,"byteStride":12},{"buffer":0,"byteOffset":2568,"byteLength":856,"target":34962,"byteStride":8},{"buffer":0,"byteOffset":3424,"byteLength":320,"target":34963},{"buffer":0,"byteOffset":3744,"byteLength":1284,"target":34962,"byteStride":12},{"buffer":0,"byteOffset":5028,"byteLength":1284,"target":34962,"byteStride":12},{"buffer":0,"byteOffset":6312,"byteLength":856,"target":34962,"byteStride":8},{"buffer":0,"byteOffset":7168,"byteLength":320,"target":34963},{"buffer":0,"byteOffset":7488,"byteLength":1284,"target":34962,"byteStride":12},{"buffer":0,"byteOffset":8772,"byteLength":1284,"target":34962,"byteStride":12},{"buffer":0,"byteOffset":10056,"byteLength":856,"target":34962,"byteStride":8},{"buffer":0,"byteOffset":10912,"byteLength":320,"target":34963}],"buffers":[{"byteLength":11232,"uri":"data:application/octet-stream;base64,"}],"accessors":[{"bufferView":0,"componentType":5126,"count":107,"max":[0.5,0.37230339646339417,0.5],"min":[-0.5,3.0616171314629196e-17,-0.5],"type":"VEC3"},{"bufferView":1,"componentType":5126,"count":107,"max":[0.9238795042037964,0.9987790584564209,0.9262182116508484],"min":[-0.9238795042037964,-1,-0.9238795042037964],"type":"VEC3"},{"bufferView":2,"componentType":5126,"count":107,"max":[0.5283390879631042,0.6057045459747314],"min":[0,0],"type":"VEC2"},{"bufferView":3,"componentType":5123,"count":159,"max":[106],"min":[0],"type":"SCALAR"},{"bufferView":4,"componentType":5126,"count":107,"max":[0.1875,0.24319708347320557,0.1875],"min":[-0.1875,0.125,-0.1875],"type":"VEC3"},{"bufferView":5,"componentType":5126,"count":107,"max":[0.8710652589797974,0.9990626573562622,0.9068909287452698],"min":[-0.9040329456329346,-1,-0.9040329456329346],"type":"VEC3"},{"bufferView":6,"componentType":5126,"count":107,"max":[0.640625,0.6257859468460083],"min":[0.19072997570037842,0],"type":"VEC2"},{"bufferView":7,"componentType":5123,"count":159,"max":[106],"min":[0],"type":"SCALAR"},{"bufferView":8,"componentType":5126,"count":107,"max":[0.25,0.30980339646339417,0.25],"min":[-0.25,0.0625,-0.25],"type":"VEC3"},{"bufferView":9,"componentType":5126,"count":107,"max":[0.9546729326248169,0.9978481531143188,0.9561327695846558],"min":[-0.9409937262535095,-1,-0.9546729326248169],"type":"VEC3"},{"bufferView":10,"componentType":5126,"count":107,"max":[0.6045241355895996,0.6083750128746033],"min":[0.010721875354647636,0],"type":"VEC2"},{"bufferView":11,"componentType":5123,"count":159,"max":[106],"min":[0],"type":"SCALAR"}],"materials":[{"pbrMetallicRoughness":{"metallicFactor":0,"roughnessFactor":1,"baseColorTexture":{"index":0}},"alphaMode":"MASK","alphaCutoff":0.05,"doubleSided":true}],"textures":[{"sampler":0,"source":0,"name":"Stone"}],"samplers":[{"magFilter":9728,"minFilter":9728,"wrapS":33071,"wrapT":33071}],"images":[{"mimeType":"image/png","uri":"data:image/png;base64,"}],"meshes":[{"primitives":[{"mode":4,"attributes":{"POSITION":0,"NORMAL":1,"TEXCOORD_0":2},"indices":3,"material":0}]},{"primitives":[{"mode":4,"attributes":{"POSITION":4,"NORMAL":5,"TEXCOORD_0":6},"indices":7,"material":0}]},{"primitives":[{"mode":4,"attributes":{"POSITION":8,"NORMAL":9,"TEXCOORD_0":10},"indices":11,"material":0}]}]}